<svg xmlns="http://www.w3.org/2000/svg" viewBox="0 0 320 260" fill="none">
  <g stroke="#2b6cd6" stroke-width="4" stroke-linecap="round" stroke-linejoin="round">
    <path d="M36 208h248"/>
    <path d="M70 196l40-92h106l38 92"/>
    <path d="M100 104V74h90v30"/>
    <path d="M134 74V52h22v22"/>
    <path d="M86 196h152"/>
    <path d="M124 156h22"/>
    <path d="M174 156h22"/>
    <path d="M208 64l22 22"/>
    <path d="M230 86l12-12"/>
    <path d="M218 98l26 26"/>
    <path d="M238 118l12-12"/>
    <path d="M232 130l16 16"/>
    <path d="M242 140l10-10"/>
    <path d="M58 86c0-14 12-26 26-26h26c14 0 26 12 26 26"/>
    <path d="M70 86h54"/>
    <path d="M76 86l-10 16"/>
    <path d="M118 86l10 16"/>
    <path d="M66 102h62"/>
  </g>
  <g stroke="#84aef5" stroke-width="3" stroke-linecap="round">
    <path d="M48 222h48"/>
    <path d="M224 222h48"/>
    <path d="M38 58h24"/>
    <path d="M258 58h24"/>
  </g>
</svg>