<svg xmlns="http://www.w3.org/2000/svg" viewBox="0 0 760 520" fill="none">
  <rect width="760" height="520" rx="32" fill="#f7fbff"/>
  <g opacity="0.45" stroke="#d8e6f7" stroke-width="2">
    <path d="M60 70H700"/><path d="M60 130H700"/><path d="M60 190H700"/><path d="M60 250H700"/><path d="M60 310H700"/><path d="M60 370H700"/><path d="M60 430H700"/>
    <path d="M110 40V470"/><path d="M190 40V470"/><path d="M270 40V470"/><path d="M350 40V470"/><path d="M430 40V470"/><path d="M510 40V470"/><path d="M590 40V470"/><path d="M670 40V470"/>
  </g>
  <g>
    <rect x="130" y="310" width="56" height="120" rx="10" fill="#d7e6f7"/>
    <rect x="220" y="270" width="56" height="160" rx="10" fill="#dfeaf8"/>
    <rect x="310" y="230" width="56" height="200" rx="10" fill="#e7eef9"/>
    <rect x="400" y="190" width="56" height="240" rx="10" fill="#edf3fb"/>
    <rect x="490" y="145" width="56" height="285" rx="10" fill="#f3f7fc"/>
    <rect x="580" y="90" width="72" height="340" rx="12" fill="#1d72f3"/>
  </g>
  <path d="M108 332C150 305 168 294 198 300C230 306 241 250 282 255C330 261 322 206 372 208C420 210 433 142 494 142C542 142 553 86 617 90" stroke="#ef4f4f" stroke-width="18" stroke-linecap="round" stroke-linejoin="round"/>
  <path d="M617 90L584 72L592 110L617 90Z" fill="#ef4f4f"/>
  <g fill="#10233d" opacity="0.72" font-family="Inter, Arial, sans-serif">
    <text x="128" y="458" font-size="20">Traffic</text>
    <text x="220" y="458" font-size="20">Calls</text>
    <text x="306" y="458" font-size="20">Leads</text>
    <text x="382" y="458" font-size="20">Quotes</text>
    <text x="468" y="458" font-size="20">Close Rate</text>
    <text x="580" y="458" font-size="20">Revenue</text>
  </g>
</svg>