<svg xmlns="http://www.w3.org/2000/svg" viewBox="0 0 360 250" fill="none">
  <g stroke="#23395d" stroke-width="3.2" stroke-linecap="round" stroke-linejoin="round">
    <path d="M62 198h214"/>
    <path d="M78 190h150"/>
    <path d="M86 106h104c10 0 18 8 18 18v52H68v-52c0-10 8-18 18-18z"/>
    <path d="M132 78h56c10 0 18 8 18 18v30h-92V96c0-10 8-18 18-18z"/>
    <path d="M124 78c0-18 14-32 32-32h8c18 0 32 14 32 32"/>
    <path d="M146 46v30"/>
    <path d="M174 46v30"/>
    <path d="M228 118h64c10 0 18 8 18 18v38"/>
    <path d="M290 118c0-18 14-32 32-32h4c18 0 32 14 32 32"/>
    <path d="M276 126l62 62"/>
    <path d="M292 110l44 44"/>
    <path d="M236 202l70-70"/>
    <path d="M224 190l18 18"/>
    <path d="M82 204l132-34"/>
    <path d="M100 212l136-34"/>
    <path d="M118 220l136-34"/>
    <path d="M110 170l46-24 54 30"/>
    <path d="M112 224h118v-30H112z"/>
    <path d="M84 224h174"/>
    <path d="M244 92l24-24"/>
    <path d="M252 100l20-20"/>
    <path d="M286 188l34-34"/>
    <path d="M300 202l38-38"/>
    <path d="M316 158l24 24"/>
    <path d="M332 142l18 18"/>
    <path d="M300 204l20 20"/>
    <path d="M318 188l18 18"/>
    <path d="M58 138h18"/>
    <path d="M58 154h10"/>
    <path d="M226 226h40"/>
  </g>
  <g stroke="#8aa9d9" stroke-width="2.2" stroke-linecap="round">
    <path d="M88 122h72"/>
    <path d="M88 136h94"/>
    <path d="M88 150h56"/>
    <path d="M88 164h72"/>
    <path d="M242 132h48"/>
    <path d="M242 146h34"/>
    <path d="M242 160h42"/>
    <path d="M124 232h92"/>
  </g>
</svg>